Patient4_TMGait_0pt8_01_right_02_EMG.mot
version=1
nRows=16
nColumns=33
inDegrees=no
endheader
time	1LAddLong	2LGlutMax	3LGlutMed	4LIliopsoas	5LSemiMemb	6LBicFemLong	7LRecFem	8LVastMed	9LVastLat	10LGasMed	11LTibAnt	12lTibPost	13LPeroneusLong	14LSol	15LExtDigLong	16LFlexDigLong	17RAddLong	18RGlutMax	19RGlutMed	20RIliopsoas	21RSemiMemb	22RBicFemLong	23RRecFem	24RVastMed	25RVastLat	26RGasMed	27RTibAnt	28RTibPost	29RPeroneusLong	30RSol	31RExtDigLong	32RFlexDigLong
1.89	0.004425	-0.25803	-0.031891	-0.011902	0.022278	-0.06958	0.10162	-0.007629	0.028076	0.04837	-0.040741	-0.001526	0.099487	0.063324	-0.11932	-0.2066	0.43106	-0.093994	0.81161	0.17471	-0.057678	-0.072327	0.11322	-0.30289	-0.028534	-0.007935	-0.30853	0.006409	0.048065	0.024567	-0.003357	0.020599
1.891	-0.00061	-0.23056	-0.03006	-0.009308	0.028534	-0.11459	0.11551	0.003357	0.014191	0.46661	-0.034637	-0.028992	0.003815	-0.16357	-0.080566	-0.23086	0.36819	-0.11002	0.8818	0.1857	-0.068817	-0.070038	0.088654	-0.3215	-0.023193	-0.007629	-0.12833	0.007629	0.047455	-0.028534	-0.004578	0.023193
1.892	-0.011292	-0.20493	0.05722	-0.014038	0.010223	-0.055542	0.13504	-0.002899	0.010681	0.7103	-0.028687	0.14557	-0.048218	0.048981	-0.065613	-0.39642	0.21668	-0.061188	1.0458	0.06958	-0.097351	-0.052795	0.11734	-0.28915	-0.012512	-0.003357	0.09613	0.008087	-0.27313	-0.012817	-0.00473	0.027466
1.893	-0.007019	-0.1651	0.000153	0.007477	-0.006409	0.0737	0.1474	-0.001678	0.00412	0.2124	0.007172	-0.1889	-0.14221	0.22308	-0.095215	0.70969	0.039978	-0.087891	0.86014	-0.063629	-0.09552	-0.033722	0.09964	-0.29098	-0.023041	-0.008392	0.020294	0.008392	-0.21439	-0.013428	-0.001526	0.029297
1.894	-0.010681	-0.15854	0.013123	0.002289	0.004272	0.14923	0.15305	-0.000305	0.004578	-0.31799	0.007477	0.47195	-0.13748	0.25559	0.001526	0.76401	-0.099335	-0.085144	0.62653	-0.24918	-0.074005	-0.009003	0.049286	-0.20767	-0.018158	-0.007324	-0.24262	0.014038	-0.11337	-0.055542	-0.002441	0.032654
1.895	-0.006866	-0.17441	-0.033417	-0.001221	-0.043793	0.18662	0.1799	0.005646	0.012054	-0.5101	0.027466	-0.18829	-0.15915	0.15472	0.018463	-1.0597	-0.22278	-0.16266	0.61447	-0.24506	-0.060577	0.057068	0.055084	-0.10101	0.010071	0.003204	-0.10483	0.007019	-0.18539	-0.081024	0.007935	0.031281
1.896	0.001831	-0.19104	-0.00885	-0.015106	-0.072784	0.068817	0.17807	0.006256	0.004425	-0.43549	0.035248	-0.11948	-0.11139	0.27695	0.058136	0.91278	-0.32166	-0.13107	0.7193	-0.056305	-0.03067	0.091248	0.03479	0.010223	0.020294	-0.008087	0.02121	0.006714	-0.2066	-0.099182	-0.000458	0.035706
1.897	0.015106	-0.21637	0.019836	-0.021362	-0.011139	-0.013275	0.14862	0.024567	-0.002899	-0.29541	0.013733	-0.019836	0.10895	0.35156	0.090332	1.2349	-0.31769	-0.097961	0.81345	0.034027	-0.003967	0.10559	-0.006866	0.049133	0.040588	-0.006256	0.27527	0.005035	-0.24826	-0.066223	0.000153	0.0354
1.898	0.014191	-0.26138	0.00473	-0.015259	0.086975	0.001373	0.11673	0.022736	-0.010986	-0.014954	0.016174	-0.023651	0.18234	0.13657	0.054626	-0.48431	-0.27268	-0.12085	0.66635	0.011749	0.028687	0.10483	-0.023041	0.071869	0.02594	-0.004578	0.29144	0.009003	-0.16098	-0.0383	-0.000305	0.042725
1.899	0.011444	-0.25436	-0.029297	-0.000458	0.062561	-0.010071	0.016479	0.023499	0.045471	0.04303	0.023499	-0.029755	0.16953	0.077515	0.059052	0.26535	-0.18509	-0.12177	0.68512	-0.019684	0.042267	0.095215	0.008087	0.002441	0.037079	0.001831	0.002441	0.003357	0	-0.023651	0.000458	0.045776
1.9	0.007629	-0.26779	-0.048065	-0.00473	-0.016022	-0.009308	-0.032959	0.026703	0.053864	-0.028534	0.036011	-0.001678	0.13092	-0.19043	0.07309	0.47073	-0.13428	-0.16388	0.60135	0.010986	0.036774	0.09491	0.020752	-0.070038	0.022583	0.005035	-0.028381	0.006256	0.24597	-0.058594	-0.003967	0.043182
1.901	0.010986	-0.28595	-0.038147	-0.011597	-0.058899	-0.028381	-0.022583	0.00946	0.049591	-0.10696	-0.008545	-0.005798	0.13092	-0.44403	0.081635	-1.0228	-0.10223	-0.11948	0.77972	0.1265	0.032501	0.094452	0.015411	-0.13199	0.014648	0.004578	-0.037842	0.016937	0.24994	-0.066833	-0.00061	0.046234
1.902	0.010986	-0.26825	0.019989	-0.010071	-0.046844	-0.016022	0.10803	-0.008087	-0.11536	0.12024	-0.069733	-0.015564	0.018005	-0.77698	0.041656	0.42114	-0.10162	-0.1355	0.6488	0.052032	0.027618	0.073547	-0.009918	-0.12619	0.027618	0.005188	0.19959	0.005341	-0.2385	-0.066528	-0.001526	0.04776
1.903	0.003967	-0.28717	-0.042419	-0.010681	-0.004578	0.09491	0.23209	-0.03952	-0.017548	0.019379	0.091553	-0.027313	0.007935	-0.43366	0.12436	0.082245	-0.099182	-0.18662	0.4985	-0.007629	0.034943	0.07019	-0.003357	-0.10483	0.024261	0.000153	0.20996	0.004578	-0.36514	-0.11871	-0.003967	0.041656
1.904	0.003967	-0.26733	-0.029449	-0.014801	-0.002289	0.040741	0.24704	-0.024414	0.070496	-0.062103	0.17441	-0.025177	-0.041199	-0.10864	0.30823	-0.036163	-0.073242	-0.21576	0.37384	-0.032806	0.032349	0.054016	0.049591	-0.089264	0.019073	0.01236	0.24735	0.007477	0.091095	-0.2272	-0.002899	0.031433
1.905	0.00824	-0.24918	-0.043182	0.003204	0.027771	0.13611	0.25421	-0.001831	0.075378	0.038147	0.054016	-0.015717	-0.004272	-0.26718	0.14053	0.11002	-0.052338	-0.14389	0.41687	-0.11368	0.013885	0.031281	0.082245	-0.10056	0.008545	0.011444	0.24292	0.005951	0.43213	-0.29251	-0.007324	0.045776
